<?xml version="1.0" encoding="utf-8"?>
<!-- Generator: Adobe Illustrator 19.2.1, SVG Export Plug-In . SVG Version: 6.00 Build 0)  -->
<!DOCTYPE svg PUBLIC "-//W3C//DTD SVG 1.1//EN" "http://www.w3.org/Graphics/SVG/1.1/DTD/svg11.dtd">
<svg version="1.1" id="Layer_1" xmlns="http://www.w3.org/2000/svg" xmlns:xlink="http://www.w3.org/1999/xlink" x="0px" y="0px"
	 width="44px" height="44px" viewBox="0 0 44 44" style="enable-background:new 0 0 44 44;" xml:space="preserve">
<style type="text/css">
	.st0{fill:#AAB7C8;}
</style>
<g>
	<g>
		<polygon class="st0" points="16,20 18,20 18,34 16,34 16,36 28,36 28,34 26,34 26,20 28,20 28,18 16,18 		"/>
		<polygon class="st0" points="2,20 4,20 4,34 2,34 2,36 14,36 14,34 12,34 12,20 14,20 14,18 2,18 		"/>
		<polygon class="st0" points="42,20 42,18 30,18 30,20 32,20 32,34 30,34 30,36 42,36 42,34 40,34 40,20 		"/>
	</g>
	<rect y="38" class="st0" width="44" height="4"/>
	<path class="st0" d="M22,2L0,12.9V16h44v-3L22,2z M22,13c-1.1,0-2-0.9-2-2s0.9-2,2-2s2,0.9,2,2S23.1,13,22,13z"/>
</g>
</svg>
