<?xml version="1.0" ?><svg viewBox="0 0 64 64" xmlns="http://www.w3.org/2000/svg"><g id="outline"><path d="M15.268,43.5v-2a6.193,6.193,0,0,1-6.183-5H13v3h2v-7H13v2H9.1a5.963,5.963,0,0,1,3.343-4.421,1,1,0,0,0,.572-.858A5.981,5.981,0,0,1,17,23.848V28.5H15v2h6v-2H19v-5a6.025,6.025,0,0,1,1.625.229,1,1,0,0,0,1.125-.443A11.928,11.928,0,0,1,29,17.881V24.5H24a1,1,0,0,0-1,1v5h2v-4h4v2H27v2h7v-2H31V17.564c.332-.027.662-.064,1-.064a12.045,12.045,0,0,1,2,.186V23.5a1,1,0,0,0,1,1h2.992l-.032,4H36v2h6v-2H39.96L40,23.508A1,1,0,0,0,39,22.5H36V18.2a11.937,11.937,0,0,1,6.25,5.082,1,1,0,0,0,1.124.443,6.416,6.416,0,0,1,.8-.169l-.283-1.98c-.109.016-.217.033-.327.054a13.967,13.967,0,0,0-23.128,0A7.865,7.865,0,0,0,19,21.5a7.98,7.98,0,0,0-7.934,7.042,7.961,7.961,0,0,0-4.049,7.479A8.155,8.155,0,0,0,15.268,43.5Z"/><rect height="2" width="2" x="13" y="50.5"/><path d="M17,52.5h1a1,1,0,0,0,1-1v-1H17Z"/><rect height="1.778" width="2" x="17" y="46.944"/><rect height="1.778" width="2" x="17" y="43.389"/><rect height="1.778" width="2" x="17" y="36.278"/><rect height="1.777" width="2" x="17" y="39.833"/><path d="M19,32.5H18a1,1,0,0,0-1,1v1h2Z"/><rect height="2" width="2" x="25" y="32.5"/><rect height="2" width="2" x="33" y="32.5"/><rect height="2" width="2" x="29" y="32.5"/><rect height="2" width="2" x="21" y="32.5"/><rect height="2" width="2" x="41" y="32.5"/><rect height="2" width="2" x="37" y="32.5"/><path d="M45,34.5h1a1,1,0,0,0,1-1v-1H45Z"/><rect height="2.111" width="2" x="45" y="15.611"/><rect height="2.111" width="2" x="45" y="28.277"/><rect height="2.111" width="2" x="45" y="24.055"/><rect height="2.111" width="2" x="45" y="19.833"/><path d="M47,11.5H46a1,1,0,0,0-1,1v1h2Z"/><path d="M49.707,16.207l3-3a1,1,0,0,0,0-1.414l-3-3-1.414,1.414L49.586,11.5H48.333v2h1.253l-1.293,1.293Z"/><path d="M45.13,46.5l4.164,3.569A4.63,4.63,0,0,0,52.317,51.2a4.691,4.691,0,0,0,1.965-.435A4.622,4.622,0,0,0,57,46.524V35.5a8.038,8.038,0,0,0-4.066-6.958,7.994,7.994,0,0,0-3.778-5.877l-1.043,1.707a6,6,0,0,1,2.871,4.849,1,1,0,0,0,.572.858A6,6,0,0,1,53.447,31.5H50v5h2v-3h2.637a5.912,5.912,0,0,1,.363,2v9H51v2h4v.024A2.668,2.668,0,0,1,50.6,48.55L47,45.469V40.5h4v2h2v-3a1,1,0,0,0-1-1H46a1,1,0,0,0-1,1v4.255l-2.35-2.014A.994.994,0,0,0,42,41.5H33v-3H43v-2H21v2H31v3H20.268v2H41.63L45,46.388V46.5Z"/><path d="M8.837,52.5H11v-2H8.837a3.5,3.5,0,1,0,0,2ZM4,51.5A1.5,1.5,0,1,1,5.5,53,1.5,1.5,0,0,1,4,51.5Z"/><path d="M58.5,9A3.5,3.5,0,1,0,62,12.5,3.5,3.5,0,0,0,58.5,9Zm0,5A1.5,1.5,0,1,1,60,12.5,1.5,1.5,0,0,1,58.5,14Z"/></g></svg>