<svg xmlns="http://www.w3.org/2000/svg" width="30" height="30" viewBox="0 0 30 30">
    <g fill="#1071EF" fill-rule="nonzero">
        <path d="M15 .268C6.876.268.268 6.876.268 15c0 8.124 6.608 14.732 14.732 14.732 8.124 0 14.732-6.608 14.732-14.732C29.732 6.876 23.124.268 15 .268zm0 27.053C8.205 27.321 2.679 21.795 2.679 15S8.205 2.679 15 2.679 27.321 8.205 27.321 15 21.795 27.321 15 27.321z"/>
        <path d="M15 14.833a4.88 4.88 0 0 0 4.874-4.874A4.88 4.88 0 0 0 15 5.085a4.88 4.88 0 0 0-4.874 4.874A4.88 4.88 0 0 0 15 14.833zm0-7.337a2.466 2.466 0 0 1 2.463 2.463A2.466 2.466 0 0 1 15 12.422a2.466 2.466 0 0 1-2.463-2.463A2.466 2.466 0 0 1 15 7.496zM10.65 16.976l-3.633 3.633 1.703 1.705 2.93-2.928h6.7l2.93 2.928 1.704-1.706-3.633-3.632z"/>
    </g>
</svg>
