<svg xmlns="http://www.w3.org/2000/svg" width="19" height="20" viewBox="0 0 19 20">
    <g fill="#1071EF" fill-rule="nonzero">
        <path d="M9.109 20a7.815 7.815 0 0 1-3.672-.918C.454 16.525-.793 9.902.454 4.853l.262-1.18 1.311.196c.787.132 2.164-.131 3.016-.328.984-.196 2.361-1.049 3.016-1.836L9.108.197l1.115 1.508c.59.787 1.967 1.639 2.95 1.836.853.197 2.23.459 3.082.328l1.246-.196.328 1.18c1.18 5.049 0 11.672-4.983 14.229-1.18.59-2.426.918-3.737.918zm7.147-14.425c-1.114.131-2.491-.132-3.475-.394-1.246-.328-2.754-1.18-3.672-2.164-.918.984-2.426 1.837-3.672 2.164-.984.262-2.36.524-3.41.394-.984 4.196 0 9.9 4.13 12 .919.524 1.902.72 2.952.72 1.049 0 2.033-.196 2.95-.72 4.197-2.1 5.115-7.803 4.197-12z"/>
        <path d="M11.142 11.083c1.114.59 1.967 1.705 2.163 3.016l.066.328h-1.115v-.262c-.327-1.443-1.639-2.492-3.147-2.492-1.509 0-2.82 1.049-3.082 2.492l-.065.262H4.847l.066-.328c.196-1.311 1.049-2.426 2.163-3.016-.59-.59-.984-1.377-.984-2.295 0-1.64 1.377-3.016 3.016-3.016a3.008 3.008 0 0 1 3.016 3.016c0 .918-.328 1.705-.984 2.295h.002zM9.109 6.887a1.903 1.903 0 0 0-1.901 1.901c0 1.115.852 1.967 1.9 1.967a1.973 1.973 0 0 0 1.968-1.967c0-1.049-.918-1.901-1.967-1.901z"/>
    </g>
</svg>
