<svg xmlns="http://www.w3.org/2000/svg" width="18" height="20" viewBox="0 0 18 20">
    <path fill="#1071EF" fill-rule="nonzero" d="M.55 16.94a1.25 1.25 0 1 1 1.767-1.768 7.32 7.32 0 0 0 10.354 0 7.32 7.32 0 0 0 0-10.355 7.323 7.323 0 0 0-10.354 0A1.25 1.25 0 1 1 .55 3.05c3.835-3.835 10.054-3.835 13.89 0 3.836 3.835 3.836 10.054 0 13.89-3.836 3.836-10.055 3.836-13.89 0zm10.286-6.214l-3.655 3.58c-1.01 1.007-2.525-.504-1.515-1.512l1.233-1.226c.28-.279.188-.505-.208-.505H1.777a1.068 1.068 0 0 1 0-2.136h4.914c.393 0 .488-.227.208-.506L5.666 7.195c-1.01-1.008.505-2.519 1.515-1.511l3.65 3.545c.428.414.428 1.082.005 1.497z"/>
</svg>
