<svg xmlns="http://www.w3.org/2000/svg" width="28" height="30" viewBox="0 0 28 30">
    <path fill="#1071EF" fill-rule="nonzero" d="M25.435 19.402v-5.641c0-2.61-.978-5.088-2.772-6.978a11.16 11.16 0 0 0-1.923-1.597c-.456-.293-1.077-.163-1.338.293-.293.456-.163 1.076.293 1.337.554.36 1.108.782 1.566 1.304a8.195 8.195 0 0 1 2.217 5.642v5.803c0 .13.033.228.065.327a.957.957 0 0 0 .914 1.304c.717 0 1.304.587 1.304 1.304 0 .717-.587 1.305-1.304 1.305H5.543A1.309 1.309 0 0 1 4.24 22.5c0-.717.587-1.304 1.304-1.304h15.391a.961.961 0 0 0 .979-.978.961.961 0 0 0-.979-.979H6.522v-1.956h.163c3.685 0 6.685-3 6.685-6.685 0-1.728-.653-3.26-1.729-4.467a8.265 8.265 0 0 1 3.065-.587h.554c.652 0 1.304.065 1.956.228.065.033.163.033.228.033a.944.944 0 0 0 .945-.75c.065-.262.034-.523-.098-.718.098-.292.13-.619.13-.913a3.423 3.423 0 0 0-6.845 0c0 .228.033.424.065.652-.587.197-1.141.425-1.695.717a6.628 6.628 0 0 0-3.294-.88C3 3.913 0 6.913 0 10.598c0 2.935 1.923 5.445 4.565 6.326v2.445a3.26 3.26 0 0 0-2.282 3.098 3.27 3.27 0 0 0 3.26 3.26h5.218A4.231 4.231 0 0 0 15 29.968a4.231 4.231 0 0 0 4.24-4.24h5.217a3.27 3.27 0 0 0 3.26-3.26 3.188 3.188 0 0 0-2.282-3.065zM15 1.957c.815 0 1.467.652 1.467 1.467 0 .065 0 .163-.033.228-.196-.033-.424-.033-.619-.065h-1.467c-.065 0-.13 0-.196.033-.196 0-.424.033-.62.065 0-.065-.032-.163-.032-.228.033-.848.685-1.5 1.5-1.5zm-13.043 8.64A4.732 4.732 0 0 1 6.685 5.87a4.732 4.732 0 0 1 4.728 4.728 4.732 4.732 0 0 1-4.728 4.728c-.163 0-.326 0-.49-.033-.162-.163-.39-.228-.652-.228-.098 0-.196.033-.292.033a4.72 4.72 0 0 1-3.295-4.5zM15 28.044a2.27 2.27 0 0 1-2.283-2.282h4.566A2.27 2.27 0 0 1 15 28.043z"/>
</svg>
