<svg xmlns="http://www.w3.org/2000/svg" width="20" height="20" viewBox="0 0 20 20">
    <path fill="#babed0" fill-rule="nonzero" d="M10.771 13.205v-.981h.279a2.218 2.218 0 0 0 2.215-2.216 2.218 2.218 0 0 0-2.215-2.215H9.542a1.264 1.264 0 0 1 0-2.526h2.737a.476.476 0 1 0 0-.952h-1.508v-.982a.476.476 0 1 0-.952 0v.982h-.277A2.218 2.218 0 0 0 7.326 6.53a2.218 2.218 0 0 0 2.182 2.215h1.54a1.264 1.264 0 0 1 0 2.526H8.202a.476.476 0 1 0 0 .953h1.618v.98a.477.477 0 0 0 .952.001zm-1.364 3.084c0-.263.213-.476.477-.476h6.428c1.05 0 1.905-.855 1.905-1.905V2.956c0-1.05-.855-1.905-1.905-1.905H4.884c-1.05 0-1.905.855-1.905 1.905v8.81a.476.476 0 1 1-.952 0v-8.81A2.86 2.86 0 0 1 4.884.099h11.428a2.86 2.86 0 0 1 2.857 2.857v10.952a2.86 2.86 0 0 1-2.857 2.857H9.884a.477.477 0 0 1-.476-.476zm-6.015 3.474L.256 16.626a.49.49 0 0 1 0-.674l3.136-3.137a.476.476 0 1 1 .673.674l-2.324 2.324h6.231a.476.476 0 1 1 0 .952h-6.23l2.324 2.324a.475.475 0 0 1 0 .674.479.479 0 0 1-.674 0z"/>
</svg>
