<svg xmlns="http://www.w3.org/2000/svg" width="20" height="20" viewBox="0 0 20 20">
    <path fill="#1071EF" fill-rule="nonzero" d="M9.705 6.19a.476.476 0 0 0-.476.477v.98H8.95a2.218 2.218 0 0 0-2.215 2.216c0 1.221.993 2.216 2.215 2.216h1.508a1.264 1.264 0 0 1 0 2.526H7.721a.476.476 0 1 0 0 .952h1.508v.981a.476.476 0 1 0 .952 0v-.98h.277a2.218 2.218 0 0 0 2.216-2.216c0-1.201-.961-2.182-2.155-2.215H8.952a1.264 1.264 0 0 1 0-2.527h2.847a.476.476 0 1 0 0-.952h-1.618v-.98a.477.477 0 0 0-.476-.478zm.887-2.479a.476.476 0 0 1-.476.476H3.688c-1.05 0-1.905.855-1.905 1.905v10.952c0 1.05.855 1.905 1.905 1.905h11.428c1.05 0 1.905-.855 1.905-1.905v-8.81a.476.476 0 1 1 .952 0v8.81a2.86 2.86 0 0 1-2.857 2.857H3.688A2.86 2.86 0 0 1 .83 17.044V6.092a2.86 2.86 0 0 1 2.857-2.857h6.428c.264 0 .477.214.477.476zM16.608.237l3.136 3.137a.49.49 0 0 1 0 .674l-3.136 3.137a.476.476 0 1 1-.673-.674l2.324-2.324h-6.231a.476.476 0 1 1 0-.952h6.23L15.934.91a.475.475 0 0 1 0-.674.479.479 0 0 1 .674 0z"/>
</svg>
