<svg xmlns="http://www.w3.org/2000/svg" width="22" height="22" viewBox="0 0 22 22">
    <g fill="none" fill-rule="evenodd" stroke="#006DF3" stroke-width=".5">
        <path d="M3.307 19.12H9.29a.854.854 0 1 1 0 1.71H3.307a.855.855 0 0 1 0-1.71z"/>
        <path d="M2.026 17.41H8.01a.854.854 0 1 1-.001 1.71H2.026a.855.855 0 0 1 0-1.71zM3.307 15.7H9.29a.855.855 0 1 1 0 1.71H3.307a.855.855 0 0 1 0-1.71z"/>
        <path d="M2.026 13.992H8.01a.854.854 0 1 1-.001 1.71L2.026 15.7a.854.854 0 1 1 0-1.71zM13.992 19.12h5.982a.855.855 0 1 1 0 1.71h-5.982a.854.854 0 0 1 0-1.71zM12.71 17.41h5.982a.854.854 0 1 1 0 1.71H12.71a.854.854 0 0 1 0-1.71zM13.992 15.7h5.982a.855.855 0 0 1 0 1.71h-5.982a.854.854 0 0 1 0-1.71z"/>
        <path d="M12.71 13.992h5.982a.855.855 0 0 1 0 1.71L12.71 15.7a.854.854 0 1 1 0-1.71zM12.71 10.573h5.982a.855.855 0 1 1 0 1.71H12.71a.854.854 0 0 1 0-1.71z"/>
        <path d="M13.992 12.282h5.982a.855.855 0 0 1 0 1.71h-5.982a.854.854 0 1 1 0-1.71zM13.992 8.863h5.982a.855.855 0 0 1 0 1.71h-5.982a.854.854 0 0 1 0-1.71z"/>
        <path stroke-linejoin="round" d="M7.978 6.109L6.3 5.05l9.401-3.88-4.367 6.77-1.628-.932"/>
        <path stroke-linejoin="round" d="M7.978 9.057V6.109l3.837-1.667z"/>
        <path d="M2.88 13.992V6.727h3.847"/>
    </g>
</svg>
