<?xml version="1.0" encoding="UTF-8"?>
<svg width="53px" height="53px" viewBox="0 0 53 53" version="1.1" xmlns="http://www.w3.org/2000/svg" xmlns:xlink="http://www.w3.org/1999/xlink">
    <!-- Generator: Sketch 51.3 (57544) - http://www.bohemiancoding.com/sketch -->
    <title>PaynoteC Logo - New Blue</title>
    <desc>Created with Sketch.</desc>
    <defs></defs>
    <g id="UI/UX-Friendly" stroke="none" stroke-width="1" fill="none" fill-rule="evenodd">
        <g id="SDashboard" transform="translate(-645.000000, -144.000000)" fill-rule="nonzero">
            <g id="PaynoteC-Logo---New-Blue" transform="translate(645.000000, 144.000000)">
                <g id="Group">
                    <path d="M26.22,0 C11.74,0 0,11.739 0,26.22 C0,40.702 11.74,52.44 26.22,52.44 C40.702,52.44 52.44,40.702 52.44,26.22 C52.44,11.739 40.703,0 26.22,0" id="Shape" fill="#1C75EB"></path>
                    <path d="M30.086,16.839 C30.753,16.888 31.418,16.976 32.066,17.126 C32.813,17.298 33.57,17.482 34.268,17.785 C36.018,18.545 37.091,19.922 37.301,21.807 C37.573,24.253 37.105,26.571 35.609,28.597 C34.692,29.841 33.453,30.65 32.009,31.152 C29.749,31.936 27.407,31.88 24.989,31.827 C25.065,31.224 25.131,30.657 25.209,30.09 C25.319,29.297 25.463,28.506 25.545,27.71 C25.58,27.377 25.705,27.308 26.012,27.297 C26.982,27.261 27.968,27.277 28.921,27.114 C30.626,26.823 31.655,25.594 31.706,23.971 C31.735,23.035 31.268,22.31 30.364,21.891 C29.469,21.477 28.511,21.443 27.55,21.428 C27.19,21.422 26.832,21.427 26.434,21.427 L27.063,16.819 C28.071,16.819 29.081,16.764 30.086,16.839 Z M25.267,16.819 C25.14,17.589 22.625,35.269 22.413,36.883 C22.373,37.191 22.2,37.21 21.956,37.209 C20.4610028,37.2051682 18.9659987,37.2048349 17.471,37.208 C17.297,37.208 17.125,37.221 16.953,37.228 C16.953,37.166 17.033,36.901 17.043,36.828 C17.43,34.06 19.656,17.892 19.788,16.818 L25.268,16.818 L25.267,16.819 Z" id="Shape" fill="#FFFFFF"></path>
                </g>
            </g>
        </g>
    </g>
</svg>