<?xml version="1.0" encoding="UTF-8"?>
<svg width="186px" height="53px" viewBox="0 0 186 53" version="1.1" xmlns="http://www.w3.org/2000/svg" xmlns:xlink="http://www.w3.org/1999/xlink">
    <!-- Generator: Sketch 51.3 (57544) - http://www.bohemiancoding.com/sketch -->
    <title>Paynote - New Blue</title>
    <desc>Created with Sketch.</desc>
    <defs>
        <polygon id="path-1" points="0.447 0.248 7.66 0.248 7.66 10.733 0.447 10.733"></polygon>
    </defs>
    <g id="UI/UX-Friendly" stroke="none" stroke-width="1" fill="none" fill-rule="evenodd">
        <g id="SDashboard" transform="translate(-900.000000, -142.000000)">
            <g id="Paynote---New-Blue" transform="translate(900.000000, 142.000000)">
                <path d="M78.17,24.843 C78.475,24.843 78.766,24.821 79.043,24.776 C79.3009433,24.7378949 79.5509128,24.6578371 79.783,24.539 C80,24.426 80.173,24.271 80.301,24.073 C80.431,23.876 80.494,23.619 80.494,23.303 C80.494,22.997 80.43,22.747 80.301,22.555 C80.1726893,22.3629908 79.9970343,22.2073122 79.791,22.103 C79.5632439,21.9899148 79.3176067,21.917171 79.065,21.888 C78.7873283,21.8536516 78.5077879,21.8366187 78.228,21.837 L76.865,21.8369937 L76.865,24.843 L78.169,24.843 L78.17,24.843 Z M75,20.267 L78.42,20.267 C79.024,20.267 79.567,20.321 80.05,20.429 C80.534,20.538 80.949,20.716 81.295,20.963 C81.639,21.21 81.906,21.526 82.093,21.91 C82.282,22.296 82.376,22.76 82.376,23.303 C82.376,23.885 82.266,24.373 82.049,24.769 C81.8394102,25.1556592 81.5370144,25.4841709 81.169,25.725 C80.7724202,25.9771608 80.333268,26.155058 79.873,26.25 C79.3571335,26.3611529 78.8306981,26.4158083 78.303,26.413 L76.866,26.413 L76.866,30.752 L75,30.752 L75,20.267 Z M96.207,26.753 L94.594,22.488 L92.949,26.753 L96.207,26.753 Z M93.838,20.267 L95.453,20.267 L99.969,30.752 L97.836,30.752 L96.859,28.353 L92.312,28.353 L91.365,30.752 L89.276,30.752 L93.838,20.267 Z M110.055,26.205 L106.115,20.267 L108.397,20.267 L111.033,24.68 L113.699,20.267 L115.861,20.267 L111.921,26.205 L111.921,30.752 L110.055,30.752 L110.055,26.205 Z M124.14,20.267 L126.614,20.267 L131.486,28.117 L131.515,28.117 L131.515,20.267 L133.381,20.267 L133.381,30.752 L131.011,30.752 L126.036,22.651 L126.006,22.651 L126.006,30.751 L124.14,30.751 L124.14,20.267 Z M144.621,25.48 C144.621,26.042 144.707,26.559 144.881,27.028 C145.053,27.497 145.301,27.904 145.621,28.25 C145.941,28.595 146.321,28.864 146.761,29.057 C147.201,29.25 147.686,29.345 148.221,29.345 C148.753,29.345 149.242,29.25 149.686,29.057 C150.120605,28.870728 150.511593,28.5958784 150.834,28.25 C151.154,27.904 151.401,27.497 151.574,27.028 C151.747,26.558 151.834,26.042 151.834,25.48 C151.834,24.937 151.747,24.434 151.574,23.969 C151.410479,23.5207363 151.161547,23.1084531 150.841,22.755 C150.521522,22.4073391 150.133326,22.1298129 149.701,21.94 C149.233932,21.7385841 148.729599,21.6380582 148.221,21.645 C147.677,21.645 147.185,21.743 146.746,21.94 C146.307,22.138 145.929,22.41 145.613,22.755 C145.297,23.101 145.053,23.505 144.88,23.969 C144.70391,24.4527546 144.616183,24.9642156 144.621,25.479 L144.621,25.48 Z M142.592,25.479 C142.592,24.641 142.732,23.883 143.014,23.207 C143.278365,22.5558345 143.677033,21.967714 144.184,21.481 C144.695943,20.9990234 145.300517,20.6261408 145.961,20.385 C146.679872,20.1232876 147.44001,19.9932105 148.205,20.001 C149.025,20.001 149.779,20.129 150.471,20.385 C151.136127,20.6257577 151.745683,20.9985664 152.263,21.481 C152.767,21.955 153.159,22.531 153.44,23.207 C153.722,23.883 153.862,24.641 153.862,25.48 C153.862,26.299 153.722,27.047 153.44,27.724 C153.172123,28.3811538 152.771422,28.9759074 152.263,29.471 C151.747871,29.966961 151.138529,30.3546011 150.471,30.611 C149.748022,30.8882072 148.979263,31.0266246 148.205,31.019 C147.395,31.019 146.647,30.883 145.961,30.612 C145.298038,30.3548907 144.693678,29.9668351 144.184,29.471 C143.67965,28.9739636 143.281592,28.379598 143.014,27.724 C142.732,27.047 142.592,26.299 142.592,25.48 L142.592,25.479 Z M164.75,21.896 L161.535,21.896 L161.535,20.266 L169.828,20.266 L169.828,21.896 L166.614,21.896 L166.614,30.752 L164.749,30.752 L164.75,21.896 Z" id="Shape" fill="#1C75EB" fill-rule="nonzero"></path>
                <g id="Group" transform="translate(178.000000, 20.019000)">
                    <g id="Clipped">
                        <g id="Shape-Clipped">
                            <mask id="mask-2" fill="white">
                                <use xlink:href="#path-1"></use>
                            </mask>
                            <g id="path-1"></g>
                            <polygon id="Shape" fill="#1C75EB" fill-rule="nonzero" mask="url(#mask-2)" points="0.447 0.248 7.392 0.248 7.392 1.878 2.313 1.878 2.313 4.543 7.127 4.543 7.127 6.113 2.313 6.113 2.313 9.074 7.66 9.074 7.66 10.734 0.447 10.734"></polygon>
                        </g>
                    </g>
                </g>
                <g id="Group" fill-rule="nonzero">
                    <path d="M26.22,0 C11.74,0 0,11.739 0,26.22 C0,40.702 11.74,52.44 26.22,52.44 C40.702,52.44 52.44,40.702 52.44,26.22 C52.44,11.739 40.703,0 26.22,0" id="Shape" fill="#1C75EB"></path>
                    <path d="M30.086,16.839 C30.753,16.888 31.418,16.976 32.066,17.126 C32.813,17.298 33.57,17.482 34.268,17.785 C36.018,18.545 37.091,19.922 37.301,21.807 C37.573,24.253 37.105,26.571 35.609,28.597 C34.692,29.841 33.453,30.65 32.009,31.152 C29.749,31.936 27.407,31.88 24.989,31.827 C25.065,31.224 25.131,30.657 25.209,30.09 C25.319,29.297 25.463,28.506 25.545,27.71 C25.58,27.377 25.705,27.308 26.012,27.297 C26.982,27.261 27.968,27.277 28.921,27.114 C30.626,26.823 31.655,25.594 31.706,23.971 C31.735,23.035 31.268,22.31 30.364,21.891 C29.469,21.477 28.511,21.443 27.55,21.428 C27.19,21.422 26.832,21.427 26.434,21.427 L27.063,16.819 C28.071,16.819 29.081,16.764 30.086,16.839 Z M25.267,16.819 C25.14,17.589 22.625,35.269 22.413,36.883 C22.373,37.191 22.2,37.21 21.956,37.209 C20.4610028,37.2051682 18.9659987,37.2048349 17.471,37.208 C17.297,37.208 17.125,37.221 16.953,37.228 C16.953,37.166 17.033,36.901 17.043,36.828 C17.43,34.06 19.656,17.892 19.788,16.818 L25.268,16.818 L25.267,16.819 Z" id="Shape" fill="#FFFFFF"></path>
                </g>
            </g>
        </g>
    </g>
</svg>